<?xml version="1.0" encoding="utf-8"?>
<!-- Generator: Adobe Illustrator 18.0.0, SVG Export Plug-In . SVG Version: 6.00 Build 0)  -->
<!DOCTYPE svg PUBLIC "-//W3C//DTD SVG 1.1//EN" "http://www.w3.org/Graphics/SVG/1.1/DTD/svg11.dtd">
<svg version="1.1" id="Layer_1" xmlns="http://www.w3.org/2000/svg" xmlns:xlink="http://www.w3.org/1999/xlink" x="0px" y="0px"
	 viewBox="-37.5 -37 233 233.5" enable-background="new -37.5 -37 233 233.5" xml:space="preserve">
<g>
	<path fill="#FFFFFF" d="M100.9,76.7c-7.7-10.6-23.4,12.8-28.1,17.8c-12.1,12.8-24.2,25.6-36.3,38.4c-3.1,3.3-6.2,6.5-9.3,9.8
		c-3.7,3.9-15.4-7.8-11.5-11.5C36.6,111.6,57.3,92,78.1,72.3c18-17,35.1-35,52.6-52.5c5.1-5.1,12.7-5.9,11.7,4.3
		c-0.9,9.4-5.8,16.8-12.3,23.3C120.4,57.3,110.6,67,100.9,76.7"/>
	<path fill="#FFFFFF" d="M56,63.6c-8.3-5.8-18-0.8-24.7-10.3c-4.5-6.4-9.1-12.8-13.6-19.2c-3.1-4.3-0.9-6.1,2.9-2.4
		c5.6,5.6,11.2,11.2,16.9,16.9c1.6,1.6,4.8,0.3,2.9-1.6c-0.2-1.2-3.8-3.8-4.7-4.7c-2.9-2.9-14.5-11.1-15.1-15.1
		c-2-2,1.3-3.2,2.9-1.6c2.3,2.3,4.6,4.6,6.9,6.9C31.8,34,42.5,47,44.7,44.7c2.3-2.3-9.3-11.6-10.6-12.9c-2.8-2.8-5.7-5.7-8.5-8.5
		c-1.6-1.6-0.3-4.8,1.6-2.9c3.6,0.5,11.1,11.1,13.7,13.7c1.1,1.1,4.5,5.8,6.1,6.1c2,2,3.2-1.3,1.6-2.9c-5.2-5.2-10.5-10.5-15.7-15.7
		c-3.7-3.7-4.4-8,1.2-4c6.1,4.3,12.2,8.7,18.3,13c10,7.1,5.1,16.7,11.1,25.3c3.6,5.1,9.2,9.2,13.7,13.4c-2.7,2.6-5.4,5.1-8.1,7.7
		C65,72.7,61,67.1,56,63.6z"/>
	<path fill="#FFFFFF" d="M92.4,83.6c6,5.7,12.1,11.4,18.1,17.1c7.3,6.9,14.6,13.8,21.8,20.7c2.3,2.2,9.6,6.9,10.6,10
		c0.7,8.4-8.4,14.7-14.3,8.5c-5.7-6-11.4-12-17-18c-10.2-10.8-20.4-21.5-30.6-32.3C85.5,85,87.3,78.8,92.4,83.6z"/>
</g>
<circle fill="none" stroke="#FFFFFF" stroke-width="5.436" stroke-miterlimit="10" cx="80" cy="80" r="113.2"/>
</svg>
